<svg width="46" height="60" fill="none" xmlns="http://www.w3.org/2000/svg"><path d="M23 .9C11.316.9 1.81 10.406 1.81 22.09c0 3.052.625 5.957 1.851 8.642C9.126 42.69 19.636 55.364 22.75 58.985a.33.33 0 00.499 0c3.112-3.62 13.624-16.294 19.09-28.253 1.227-2.685 1.85-5.59 1.85-8.642L23 .9zm0 0c11.681 0 21.188 9.506 21.19 21.19L23 .9zm0 33.563c-6.825 0-12.375-5.55-12.375-12.374 0-6.824 5.55-12.375 12.374-12.375 6.824 0 12.374 5.55 12.374 12.375L23 34.463zm0 0c6.823 0 12.374-5.55 12.373-12.374L23 34.463z" stroke="#fff" stroke-width="1.8"/></svg>